PathFileType	4	(X/Y/Z)	Patient4_TMGait_0pt2_01_right_07.trc.trc
DataRate	CameraRate	NumFrames	NumMarkers	Units	OrigDataRate	OrigDataStartFrame	OrigNumFrames
42.042042042042	42.042042042042	6	33	mm	42.042042042042	89	       141
Frame#	Time	Sacral			L.Shoulder			Chest			R.Shoulder			Neck			R.ASIS			L.ASIS			R.Thigh.Superior			R.Thigh.Lateral			R.Thigh.Inferior			R.Patella			L.Thigh.Superior			L.Thigh.Lateral			L.Thigh.Inferior			L.Patella			L.Shank.Superior			L.Shank.Lateral			L.Shank.Inferior			R.Shank.Superior			R.Shank.Lateral			R.Shank.Inferior			R.Heel			R.Midfoot.Superior			R.Midfoot.Lateral			R.Toe			L.Heel			L.Midfoot.Lateral			L.Midfoot.Superior			L.Toe			L.Elbow			L.Wrist			R.Elbow			R.Wrist			
		X1	Y1	Z1	X2	Y2	Z2	X3	Y3	Z3	X4	Y4	Z4	X5	Y5	Z5	X6	Y6	Z6	X7	Y7	Z7	X8	Y8	Z8	X9	Y9	Z9	X10	Y10	Z10	X11	Y11	Z11	X12	Y12	Z12	X13	Y13	Z13	X14	Y14	Z14	X15	Y15	Z15	X16	Y16	Z16	X17	Y17	Z17	X18	Y18	Z18	X19	Y19	Z19	X20	Y20	Z20	X21	Y21	Z21	X22	Y22	Z22	X23	Y23	Z23	X24	Y24	Z24	X25	Y25	Z25	X26	Y26	Z26	X27	Y27	Z27	X28	Y28	Z28	X29	Y29	Z29	X30	Y30	Z30	X31	Y31	Z31	X32	Y32	Z32	X33	Y33	Z33	

89	16.003142857143	816.734546194554	1009.302692818150	488.549010247357	952.768386324280	1431.218565584400	278.359777206336	1087.862914708752	1364.577442388656	415.445297918444	1041.236716003014	1439.235706248711	600.812080136842	966.906652402992	1495.218211630166	435.010792721770	1057.005202081180	935.349870256005	574.504539573171	1009.165128966800	965.113538381188	305.180433708918	1049.580805624105	722.797166856111	553.799948063926	950.977388857385	630.557080084504	627.010677773582	1007.858090278031	560.969485010267	547.008604843593	986.210064231520	469.379295479797	560.754785231029	1075.081652536381	761.283415250809	340.060532338735	998.751819580100	634.086663289337	280.524507154340	1090.930719499880	565.984058303987	342.717807285311	1097.485776097160	494.820759161248	350.295990062622	1071.479642323668	421.424476440486	342.873231111017	984.298400937223	305.728719166917	291.341995399459	1036.787904063748	194.646606511357	360.490844513195	929.026416611864	394.076535305058	574.848058326266	830.371705258572	321.946421522872	644.976287664128	839.625595021525	214.498760623878	589.801059318153	661.184617446440	84.247854346248	572.208634256086	839.670533995521	104.533511526961	608.277571986175	741.998800803998	61.382817106936	646.391911598206	945.654211516640	36.722363062586	637.917848478294	909.193389499640	39.021909003739	398.995739449145	984.346577871892	36.542522819452	319.439137674884	1067.905159140537	97.121948218824	347.543562745178	1196.073998780723	44.035711905038	320.459681007935	844.466625285636	1099.233298609213	174.169388129195	835.468893545084	837.791297037657	189.721300620210	1247.842606374011	1165.526789677932	688.535767173814	1493.445698074238	1184.683644959494	608.143896533785	
90	16.026928571429	817.632845447061	1009.265179932478	482.167007806624	953.784152367331	1431.814926243472	273.575043407356	1087.805428294943	1365.380041028804	411.746568908731	1039.529432083449	1439.607755324387	596.892181753031	966.461757505014	1495.681927231585	430.581514808584	1057.379541848724	935.988500147302	569.869267394490	1011.420714768915	965.229890777770	300.138439891589	1049.935780661764	723.294270630855	550.440433279672	950.715744747431	631.601023251412	623.695600870680	1008.168397227552	561.331321002090	544.621781555265	986.330160837657	469.329278443370	559.085089946018	1076.442463042203	760.701483464333	335.811617715501	999.330628341080	633.483997591401	277.077679547224	1090.934768676549	565.132505585451	339.671366940152	1097.079744506223	493.842333544030	347.784552762545	1070.352796244088	420.453800418679	340.900967978033	982.253178884466	305.260710212665	289.961658013874	1033.338474292814	194.151930678568	359.893770456327	928.258263377643	394.708371026772	573.430837181329	828.632792743179	323.878128401274	643.578197541386	837.385137419899	215.822091387616	589.342524424307	657.640154447754	87.396205620532	572.305426743391	836.581185490358	105.054159873928	608.520509361924	738.130216473575	63.201280118836	646.452464752947	941.267936831587	36.682896197692	637.870792924168	904.455254242303	39.137459459908	398.981139303159	979.605353538175	36.574913133240	319.458183776723	1063.280958986133	97.014293814515	347.525529618083	1191.416173800264	43.525806903387	320.430440611479	850.017588531037	1098.896786637972	166.248546303939	845.271217111605	837.231606192476	180.243370263560	1241.909613095686	1161.401716873397	686.213354175176	1489.569488167395	1171.135558138907	609.713557410591	
91	16.050714285714	818.421316868295	1009.117002013075	475.876486899500	954.674051110818	1432.308669230871	268.859139040460	1087.545283911804	1366.119754249680	408.175041722657	1037.548249349601	1439.928635725974	593.063713783760	965.811758693886	1496.068006321543	426.184672466903	1057.614845245763	936.589790534797	565.394835139814	1013.621093305943	965.241714100921	295.250787986975	1050.439914718670	723.761139432271	547.218075551449	950.736066038369	632.472862608212	620.465469843593	1008.894072350179	561.597636748093	542.325544943348	986.978182386670	469.077128807963	557.581679298322	1077.754723558238	760.045194494400	331.686801519286	999.862578074605	632.838511032575	273.724855515746	1090.905412540695	564.235899734250	336.682994732097	1096.624897555394	492.842173916981	345.325490130970	1069.183417908982	419.450967669325	338.965804643429	980.165065266291	304.772913008969	288.574279696230	1029.850306032062	193.645354456981	359.305445460247	927.925746220929	395.170864012026	572.100157405224	827.251512929711	325.774537588294	642.231960054091	835.394864513886	217.120383307940	588.940645223863	654.261782298120	90.762895059850	572.413687732659	833.571527063675	105.497480767434	608.731624443739	734.343994824563	65.142449163460	646.535437506736	936.849451232079	36.628211719388	637.845662647628	899.718004865371	39.242209240817	398.960415182200	974.865158736081	36.596572087911	319.464491937528	1058.646695789437	96.912644517279	347.496115223419	1186.749407404008	43.071890320272	320.404522325001	856.111222518397	1098.234346161823	158.568406950254	856.107896998142	836.416870268486	171.184557364282	1234.588478787182	1156.483024256038	684.244272372923	1483.956931624313	1155.791837159841	611.937150898046	
92	16.074500000000	819.053400328128	1008.853925204574	469.685259403042	955.483057290804	1432.674040717077	264.198570623765	1087.103710311130	1366.768622485130	404.739160053203	1035.291281787062	1440.187809603466	589.319274364029	964.986715101958	1496.364183272911	421.785201319659	1057.664697358386	937.137531134279	561.102348510770	1015.725843013874	965.155391937154	290.543407102982	1051.204976022821	724.210142092582	544.103868944983	951.255096852977	633.109587500702	617.297384319590	1010.300253626697	561.754191693341	540.077628302821	988.455575275706	468.573882088623	556.214233000717	1078.964312079906	759.306250593488	327.687866363625	1000.295933615887	632.154016199455	270.465550288311	1090.785109965579	563.296645328091	333.770568546153	1096.065540879094	491.825462945854	342.935678999455	1067.927218444337	418.424116488073	337.078991248511	978.010036944696	304.262100413352	287.183642864947	1026.304126037102	193.127913685369	358.730555290818	928.290224071008	395.428323539168	570.817713174293	826.447513790698	327.682230065686	640.884773771213	833.796901410707	218.445717852148	588.547417316035	651.146525464401	94.575231879539	572.452570552854	830.697737672554	105.943485343683	608.897986892161	730.675308175597	67.389800933378	646.585061252480	932.353167220712	36.530761871139	637.854781174609	894.977975116652	39.329439445173	398.933534923494	970.122859604720	36.606627438735	319.457194603091	1053.994919637613	96.818954236955	347.457324573899	1182.069173808171	42.685895596010	320.381844588258	862.891938831190	1097.217008861005	151.178459942324	868.152254721486	835.342622549624	162.650422742293	1225.724678180777	1150.815504919317	682.606591762754	1476.291609668299	1138.606213143245	614.783342709915	
93	16.098285714286	819.484226057146	1008.467254946259	463.605402226621	956.251642463059	1432.887592626288	259.590087154254	1086.500542515422	1367.298261039029	401.453179940401	1032.759272006259	1440.370683604544	585.659218476205	964.020982861842	1496.557475102101	417.366294781322	1057.483295121461	937.615943446227	557.006182370421	1017.686312663300	964.981116156761	286.037827937220	1052.348663469549	724.664235389183	541.056698279568	952.500726734504	633.460987021634	614.160278595680	1012.654471871467	561.804541966817	537.822493413737	991.063966901800	467.796605611309	554.931729913285	1080.019444251566	758.481755161462	323.822686880582	1000.588330203853	631.432704170109	267.306056177887	1090.523557460927	562.319333574955	330.963438067991	1095.355825525782	490.797571292796	340.641918163078	1066.547697050725	417.381771477809	335.260883957341	975.772646359631	303.726331453565	285.803813045181	1022.690006776862	192.601687053100	358.178105094479	929.617777629933	395.465756720792	569.529225284314	826.450902827329	329.669445319096	639.462923169813	832.743735950748	219.874242987327	588.094267791914	648.413786140375	99.097731484316	572.305014093491	828.022577588261	106.498688885196	608.989544162243	727.167078399310	70.166451790000	646.516406632782	927.725707029648	36.363687489307	637.908841718363	890.232260208963	39.395462816084	398.900922500126	965.376374062799	36.605608189655	319.437509233024	1049.321984210323	96.733757400580	347.412959839613	1177.373466393833	42.369828553583	320.362318402900	870.484530555020	1095.835948453818	144.132756056879	881.555278932859	834.031958605888	154.747454725738	1215.199363639615	1144.486004165101	681.259997372975	1466.257972564628	1119.584290348446	618.213348641872	
94	16.122071428571	819.674657656450	1007.944695624450	457.653137251267	957.010514584117	1432.930471766475	255.043133114665	1085.751635603902	1367.681732230401	398.336363725633	1029.956463014295	1440.457670083266	582.093068059992	962.948995988610	1496.633919374957	412.935982772379	1057.029669657330	938.011035310807	553.113096977670	1019.451023857581	964.728474835620	281.750163666076	1053.976495430513	725.156549227010	538.030586709529	954.680598578002	633.500968784257	611.020875111161	1016.189738037972	561.775297750017	535.498687420528	995.065411258388	466.757753430288	553.667931254995	1080.879403526016	757.574998421222	320.106864510117	1000.717167417225	630.674107860456	264.258992526659	1090.091174866714	561.310450428043	328.298124979371	1094.473370364506	489.762531405787	338.476756018990	1065.026779387352	416.330148784563	333.537359204797	973.451149837801	303.165276088502	284.455703937792	1019.009201586852	192.068591310682	357.659420706668	932.145283816162	395.295804231633	568.169709042255	827.472289923450	331.822312296025	637.877048514770	832.381442247061	221.501860095755	587.497279775086	646.197094234059	104.601371854859	571.821851620257	825.611575007331	107.289620811910	608.957746535332	723.869376124571	73.712773110717	646.217609861273	922.915418312774	36.105219327362	638.013753755899	885.479468692973	39.439697815645	398.863127238272	960.624971699145	36.595126386278	319.408030450774	1044.627959352486	96.656405654393	347.367761933794	1172.662855311625	42.117552583725	320.345843623473	878.977691135732	1094.106337645323	137.487248512373	896.434705290471	832.541224109976	147.574538309187	1202.945143936223	1137.618752375881	680.146909291331	1453.557281805085	1098.795724484839	622.179972783671	
